<svg width="24" height="24" viewBox="0 0 24 24" fill="none" xmlns="http://www.w3.org/2000/svg">
<path d="M1 7.11111V3.88034C1 3.32806 1.44772 2.88034 2 2.88034H3.23947M1 7.11111V22C1 22.5523 1.44772 23 2 23H22C22.5523 23 23 22.5523 23 22V7.11111M1 7.11111H23M23 7.11111V3.88034C23 3.32806 22.5523 2.88034 22 2.88034H16.8496M5.19492 4.94872C6.27608 4.94872 7.15254 4.06477 7.15254 2.97436C7.15254 1.88395 6.27608 1 5.19492 1C4.145 1 3.28813 1.83359 3.23947 2.88034M11.9068 4.94872C12.9879 4.94872 13.8644 4.06477 13.8644 2.97436C13.8644 1.88395 12.9879 1 11.9068 1C10.8569 1 9.99999 1.83359 9.95133 2.88034M18.8051 4.94872C19.8863 4.94872 20.7627 4.06477 20.7627 2.97436C20.7627 1.88395 19.8863 1 18.8051 1C17.7552 1 16.8983 1.83359 16.8496 2.88034M3.23947 2.88034H9.95133M9.95133 2.88034H16.8496M3.23729 9.08547H6.59322V12.4701H3.23729V9.08547ZM3.23729 13.4103H6.59322V16.7949H3.23729V13.4103ZM3.23729 17.735H6.59322V21.1197H3.23729V17.735ZM7.8983 9.08547H11.2542V12.4701H7.8983V9.08547ZM7.8983 13.4103H11.2542V16.7949H7.8983V13.4103ZM7.8983 17.735H11.2542V21.1197H7.8983V17.735ZM12.5593 9.08547H15.9153V12.4701H12.5593V9.08547ZM12.5593 13.4103H15.9153V16.7949H12.5593V13.4103ZM12.5593 17.735H15.9153V21.1197H12.5593V17.735ZM17.4068 9.08547H20.7627V12.4701H17.4068V9.08547ZM17.4068 13.4103H20.7627V16.7949H17.4068V13.4103ZM17.4068 17.735H20.7627V21.1197H17.4068V17.735Z" stroke="#FF6D1A" stroke-width="0.5" stroke-linecap="round" stroke-linejoin="round"/>
</svg>
