<svg width="95" height="26" viewBox="0 0 95 26" fill="none" xmlns="http://www.w3.org/2000/svg">
<path d="M0 2.45946C0 1.10114 1.14954 0 2.56757 0H24.5753C25.9933 0 27.1429 1.10114 27.1429 2.45946V23.5405C27.1429 24.8989 25.9933 26 24.5753 26H2.56757C1.14954 26 0 24.8989 0 23.5405V2.45946Z" fill="url(#paint0_linear_2_984)"/>
<path d="M10.7448 8.3361V8.10672V7.49505V7.26567H10.3457V7.34213V8.25964V8.3361H10.7448Z" fill="#FF6D1A"/>
<path d="M7.07306 15.7526V12.6178V12.4649H9.46766H9.70712H12.1017H12.3412H12.5806V11.9297H12.3412H12.0219H11.2237H10.9044H10.2659H9.94658H9.2282H8.90892H7.07306V11.7768H8.90892H9.2282H9.94658H10.2659H10.9044H11.2237H12.0219V11.9297H12.3412V11.7003H12.8201V12.2355H13.2192V11.7003H20.5626V12.2355H20.8819V11.7003H20.9617V10.9357V10.2476V9.40652H20.8819L20.0837 8.3361H17.8488L18.647 9.40652H13.2192V8.87131H12.8201V9.40652H12.2614V8.3361H17.8488H20.0837V5.8894H12.0219V6.73045V7.64796V9.40652H5.23721V9.94174H5.15739V10.2476V10.7828V11.0886H5.23721V11.7768H5.63631V11.9297H4.67847V12.5413H5.63631V15.7526H7.07306Z" fill="white"/>
<path d="M12.3412 15.2174V12.6178H12.1017H9.70712H9.6273V17.8935V18.5816H12.3412V16.7466V16.4408V15.2174Z" fill="white"/>
<path d="M9.30802 12.6178H7.07306V15.7526V18.2758H9.30802V17.8935V12.7707V12.6178Z" fill="white"/>
<path d="M9.30802 12.7707V17.8935H9.6273V12.6178H9.70712V12.4649H9.46766V12.7707H9.30802Z" fill="white"/>
<path d="M12.3412 15.2174V16.4408L12.8201 15.982H13.0596C13.0862 15.982 13.1394 15.9514 13.1394 15.8291C13.1394 15.7068 13.0862 15.6762 13.0596 15.6762H12.8201L12.3412 15.2174Z" fill="white"/>
<path d="M14.4165 19.4227H18.8864C18.9928 19.3972 19.2057 19.3003 19.2057 19.1168V16.7466C19.2057 16.5631 18.9928 16.4662 18.8864 16.4408H14.4165C14.2249 16.4408 14.1238 16.6447 14.0972 16.7466V19.1168C14.1238 19.2188 14.2249 19.4227 14.4165 19.4227Z" fill="white"/>
<path d="M19.2057 16.7466V19.1168H19.6846V16.7466H19.2057Z" fill="white"/>
<path d="M13.6183 16.7466V17.817V18.2758V19.1168H14.0972V16.7466H13.6183Z" fill="white"/>
<path d="M13.6183 17.817H13.2192V18.2758H13.6183V17.817Z" fill="white"/>
<path d="M12.3412 16.7466V18.5816H9.6273H9.30802V19.0404H8.98874V19.4227H13.2192V18.2758V17.817V16.7466H12.3412Z" fill="white"/>
<path d="M8.98874 20.1108H19.3653V19.4227H18.8864H14.4165H13.2192H8.98874V20.1108Z" fill="white"/>
<path d="M21.2012 12.2355H20.8819H20.5626H20.2434V19.805H21.2012V12.2355Z" fill="white"/>
<path d="M21.5205 19.805H21.2012H20.2434H19.9241V20.1108H21.5205V19.805Z" fill="white"/>
<path d="M21.281 8.71839V9.40652V11.7003V12.3884H22.2389V8.71839H21.281Z" fill="white"/>
<path d="M21.1214 9.40652V10.2476V10.9357V11.7003H21.281V9.40652H21.1214Z" fill="white"/>
<path d="M21.1214 10.2476H20.9617V10.9357H21.1214V10.2476Z" fill="white"/>
<path d="M11.7026 7.41859H11.8623V6.95983H11.7026V6.73045H11.1439V6.95983C11.0641 6.95983 10.9842 6.95983 10.9842 7.18921C10.9842 7.41859 11.0641 7.41859 11.1439 7.41859V7.5715H10.9044V7.49505H10.7448V8.10672H10.9044V8.03026H11.1439V8.18318H11.3833C11.5749 8.18318 11.676 7.97929 11.7026 7.87734V7.41859Z" fill="white"/>
<path d="M11.8623 7.64796H12.0219V6.73045H11.8623V6.95983V7.41859V7.64796Z" fill="white"/>
<path d="M9.06856 8.25964H10.3457V7.34213H9.06856C8.96214 7.34213 8.74928 7.43388 8.74928 7.80088C8.74928 8.16789 8.96214 8.25964 9.06856 8.25964Z" fill="white"/>
<path d="M4.99775 10.7828H5.15739V10.2476H4.99775V10.7828Z" fill="white"/>
<path d="M9.2282 11.9297V11.7768H8.90892V11.9297H9.2282Z" fill="white"/>
<path d="M10.2659 11.9297V11.7768H9.94658V11.9297H10.2659Z" fill="white"/>
<path d="M11.2237 11.9297V11.7768H10.9044V11.9297H11.2237Z" fill="white"/>
<path d="M12.3412 12.4649H12.1017V12.6178H12.3412V12.4649Z" fill="white"/>
<rect x="14.0974" y="17.0525" width="5.10848" height="0.229376" fill="#FF6D1A"/>
<rect x="14.0974" y="17.4348" width="5.10848" height="0.229378" fill="#FF6D1A"/>
<rect x="14.0974" y="17.8171" width="5.10848" height="0.22938" fill="#FF6D1A"/>
<rect x="14.0974" y="18.1995" width="5.10848" height="0.229379" fill="#FF6D1A"/>
<rect x="14.0974" y="18.5817" width="5.10848" height="0.229382" fill="#FF6D1A"/>
<path d="M35.583 10.1697V2.38295H40.6374V0.113009H32.8833V10.1697H35.583Z" fill="#262628"/>
<path d="M44.869 10.1697V6.42H46.8488C48.0186 6.42 48.9485 6.13267 49.6384 5.54363C50.3283 4.95459 50.6733 4.19316 50.6733 3.25932C50.6733 2.32548 50.3283 1.57841 49.6384 0.989379C48.9485 0.400344 48.0186 0.113009 46.8488 0.113009H42.1693V10.1697H44.869ZM44.869 2.29675H46.6538C47.4487 2.29675 47.9436 2.65592 47.9436 3.28805C47.9436 3.92019 47.4337 4.29373 46.6538 4.29373H44.869V2.29675Z" fill="#262628"/>
<path d="M52.8203 10.1697L53.7052 8.04344H57.6047L58.4896 10.1697H61.3843L56.9748 0.055542H54.3801L49.9706 10.1697H52.8203ZM55.6549 3.28805L56.7498 5.97463H54.5601L55.6549 3.28805Z" fill="#262628"/>
<path d="M65.2426 10.1697V5.989H69.2021V10.1697H71.9018V0.113009H69.2021V3.69032H65.2426V0.113009H62.5429V10.1697H65.2426Z" fill="#262628"/>
<path d="M35.583 25.6772V19.5426L37.5178 22.2435H39.0026L40.8774 19.5426V25.6772H43.562V15.6205H40.8924L38.2227 19.4851L35.568 15.6205H32.8833V25.6772H35.583Z" fill="#262628"/>
<path d="M47.5621 25.6772L48.447 23.5509H52.3465L53.2314 25.6772H56.1261L51.7166 15.563H49.1219L44.7124 25.6772H47.5621ZM50.3968 18.7955L51.4916 21.4821H49.3019L50.3968 18.7955Z" fill="#262628"/>
<path d="M62.0571 25.8783C63.1219 25.8783 64.0818 25.6628 64.9367 25.2462V22.6889C64.2018 23.2205 63.2869 23.4934 62.1771 23.4934C61.2622 23.4934 60.4973 23.2348 59.8823 22.7033C59.2824 22.1717 58.9824 21.4821 58.9824 20.6488C58.9824 19.8299 59.2824 19.1403 59.8673 18.6087C60.4523 18.0772 61.1872 17.8042 62.0721 17.8042C63.047 17.8042 63.9318 18.0484 64.7568 18.5369V15.994C63.9318 15.6061 63.032 15.4193 62.0421 15.4193C60.3623 15.4193 58.9674 15.9078 57.8576 16.8847C56.7627 17.8617 56.2078 19.1116 56.2078 20.6488C56.2078 22.1861 56.7627 23.436 57.8726 24.4129C58.9824 25.3898 60.3773 25.8783 62.0571 25.8783Z" fill="#262628"/>
<path d="M71.879 25.6772V17.8904H75.0437V15.6205H66.0297V17.8904H69.1794V25.6772H71.879Z" fill="#262628"/>
<path d="M84.5709 25.6772V23.4072H79.1716V21.439H83.3711V19.2552H79.1716V17.8904H84.4509V15.6205H76.4719V25.6772H84.5709Z" fill="#262628"/>
<path d="M88.7944 25.6772V21.9275H90.7742C91.9441 21.9275 92.874 21.6401 93.5639 21.0511C94.2538 20.462 94.5988 19.7006 94.5988 18.7668C94.5988 17.8329 94.2538 17.0859 93.5639 16.4968C92.874 15.9078 91.9441 15.6205 90.7742 15.6205H86.0948V25.6772H88.7944ZM88.7944 17.8042H90.5792C91.3741 17.8042 91.8691 18.1634 91.8691 18.7955C91.8691 19.4276 91.3591 19.8012 90.5792 19.8012H88.7944V17.8042Z" fill="#262628"/>
<defs>
<linearGradient id="paint0_linear_2_984" x1="27.1429" y1="-5.29758e-06" x2="-2.58765" y2="3.4048" gradientUnits="userSpaceOnUse">
<stop stop-color="#FF5300"/>
<stop offset="1" stop-color="#FF7800"/>
</linearGradient>
</defs>
</svg>
