<svg width="26" height="26" viewBox="0 0 26 26" fill="none" xmlns="http://www.w3.org/2000/svg">
<path d="M13 7.71867C13.5417 7.65096 14.8687 7.79992 15.8437 8.93742C16.8187 10.0749 16.7917 11.3072 16.6562 11.7811M12.7969 4.46863C13.8802 4.33321 16.4531 4.63113 18.0781 6.90613C19.7031 9.18113 19.8385 11.2395 19.7031 11.9843" stroke="#FF6D1A" stroke-linecap="round" stroke-linejoin="round"/>
<path d="M7.51562 21.905L8.01478 21.8759C8.0028 21.6703 7.86597 21.4931 7.67009 21.4295L7.51562 21.905ZM7.62503 23.7824L7.12588 23.8115L7.62503 23.7824ZM8.95631 24.3593L8.63621 23.9752V23.9752L8.95631 24.3593ZM11.375 22.3438V21.8438C11.258 21.8438 11.1448 21.8848 11.0549 21.9596L11.375 22.3438ZM10.1562 1.3125H15.4375V0.3125H10.1562V1.3125ZM23.0625 8.9375V14.2188H24.0625V8.9375H23.0625ZM2.53125 14.2188V8.9375H1.53125V14.2188H2.53125ZM23.0625 14.2188C23.0625 18.4299 19.6487 21.8438 15.4375 21.8438V22.8438C20.201 22.8438 24.0625 18.9822 24.0625 14.2188H23.0625ZM15.4375 1.3125C19.6487 1.3125 23.0625 4.72633 23.0625 8.9375H24.0625C24.0625 4.17404 20.201 0.3125 15.4375 0.3125V1.3125ZM10.1562 0.3125C5.39279 0.3125 1.53125 4.17404 1.53125 8.9375H2.53125C2.53125 4.72633 5.94508 1.3125 10.1562 1.3125V0.3125ZM7.01647 21.9341L7.12588 23.8115L8.12418 23.7533L8.01478 21.8759L7.01647 21.9341ZM9.2764 24.7434L11.6951 22.7279L11.0549 21.9596L8.63621 23.9752L9.2764 24.7434ZM7.67009 21.4295C4.62163 20.4392 2.53125 17.616 2.53125 14.2188H1.53125C1.53125 18.0425 3.89427 21.2544 7.36116 22.3806L7.67009 21.4295ZM15.4375 21.8438H11.375V22.8438H15.4375V21.8438ZM7.12588 23.8115C7.18855 24.887 8.44875 25.4331 9.2764 24.7434L8.63621 23.9752C8.43916 24.1394 8.13911 24.0094 8.12418 23.7533L7.12588 23.8115Z" fill="#FF6D1A"/>
<path d="M10.9055 9.66628L8.8096 7.40911C8.65621 7.24392 8.39764 7.23521 8.23347 7.38972L6.2979 9.21143C5.63033 9.83974 5.61434 10.8956 6.26257 11.5438L12.7926 18.0738C13.4554 18.7366 14.5399 18.7027 15.1601 17.9999L16.81 16.13C16.952 15.9691 16.9444 15.7256 16.7927 15.5739L14.7092 13.4904C14.5505 13.3318 14.2933 13.3318 14.1347 13.4904L13.6936 13.9315C13.5349 14.0902 13.2777 14.0902 13.119 13.9315L10.4436 11.256C10.2849 11.0974 10.2849 10.8402 10.4436 10.6815L10.8951 10.23C11.0496 10.0755 11.0542 9.82641 10.9055 9.66628Z" stroke="#FF6D1A" stroke-linecap="round" stroke-linejoin="round"/>
</svg>
